<?xml version="1.0" encoding="utf-8"?>
<!-- Generator: Adobe Illustrator 21.0.2, SVG Export Plug-In . SVG Version: 6.00 Build 0)  -->
<svg version="1.1" id="Layer_1" xmlns="http://www.w3.org/2000/svg" xmlns:xlink="http://www.w3.org/1999/xlink" x="0px" y="0px"
	 viewBox="0 0 199 78" style="enable-background:new 0 0 199 78;" xml:space="preserve">
<style type="text/css">
	.st0{fill:#FFEE58;}
</style>
<g>
	<path class="st0" d="M5.6,7.4H0.1v-7h11.4c2.3,0,3.1,0.9,3.1,3.2v74h-9V7.4z"/>
	<path class="st0" d="M29.8,7.4h-6.2v-7h15.2v64.3h-9V7.4z"/>
	<path class="st0" d="M83.7,0.4v42.4c0,17-6.5,21.9-20.4,21.9h-16v-7h9.9L49,0.4h9l8.3,57.2c6.8-0.6,8.5-4.8,8.5-15.2V7.4h-6.3v-7
		H83.7z"/>
	<path class="st0" d="M127.2,16.7v48H92.8v-7h25.4V16.9c0-7.6-1.8-9.5-6.1-9.5h-5.1c-4.7,2.9-6.5,8.3-4,17.4l3.2,12l-8.6,2.8
		l-3.2-12.3c-2.5-9.9-0.5-16.4,3.6-19.8h-5.3v-7h22.6C123.2,0.4,127.2,3.5,127.2,16.7z"/>
	<path class="st0" d="M141.9,7.4h-6.2v-7h15.2v64.3h-9V7.4z"/>
	<path class="st0" d="M189.7,7.4H162v-7h36.7v64.3h-9V7.4z M163.8,34.9c0-4.6,0.3-8.3,1.2-11.7l8.7,0.8c-0.5,3.3-0.9,6.4-0.9,10.9
		v29.8h-9V34.9z"/>
</g>
</svg>
