<?xml version="1.0" encoding="utf-8"?>
<!-- Generator: Adobe Illustrator 21.0.2, SVG Export Plug-In . SVG Version: 6.00 Build 0)  -->
<svg version="1.1" id="Layer_1" xmlns="http://www.w3.org/2000/svg" xmlns:xlink="http://www.w3.org/1999/xlink" x="0px" y="0px"
	 viewBox="0 0 248 60" style="enable-background:new 0 0 248 60;" xml:space="preserve">
<style type="text/css">
	.st0{fill:#FFEE58;}
</style>
<g>
	<path class="st0" d="M56.2,52.1c-1,0-1.5-0.5-1.6-1c-0.1-1.4,1.3-1.1,1.3-2.5c-0.3-7.4-9.8-13.9-18.7-17.1c0.7,6.1,7.8,12.1,9.1,16
		c1.4,4.5-1.7,7.1-7.1,8.8C31.8,58.4,23,60.4,13,59.4C-0.9,58,0.1,49,0.3,47.1c0.2-1.8,1.2-2.9,2.5-2.3c1.3,0.5,1.4,1.7,2.6,2.8
		c2.5,2.2,5.3,3.2,8.7,3.5c6.4,0.6,16.9,0.8,25.1-1.4c-3.4-3.7-8.5-10-8.7-14.3c-0.1-3.2,2.3-4.5,3.7-5c-0.9-0.2-1.8-0.5-2.6-0.7
		c-3-0.7-5.1-2.5-5.1-4.6c-0.1-1.9,1.8-3.9,4.8-3.9c13.7,0,28.9,12.9,29.2,22.7C60.8,49.7,58,52.1,56.2,52.1z"/>
	<path class="st0" d="M107.9,53.4c-6.5,0-11.7-2-15-4.8c-1.8,2.3-5.1,3.9-9,3.9c-5.5,0-9.4-1.8-12.2-4.3l-0.1,0.2
		c-1.4,4.2-5.1,4.4-6.1,4.2c-0.9-0.1-1.4-0.8-1.4-1.3c0-0.8,0.6-1.1,1-1.3c0.7-0.3,1.3-0.8,1.3-2c0-1.2-1.3-6.9-4.2-13.6
		c-3.3-7.3-8.7-14.4-8.3-17c0.3-2.1,2.4-3.1,4.4-2.8c1.9,0.3,3.5,1.9,5,4.6c0.6,1,2.8,5.1,4.7,9.6c1.8-2.2,4.6-3.5,7.9-3.6
		c8.5-0.4,13.8,4.6,13.9,7.5c0.1,2.5-1.4,3.7-3.3,3.7c-5,0-4.1-6.4-9.2-6.5c-2.2-0.1-3.6,1.9-3.4,5c0.3,5.8,5.1,12.7,10.8,12.7
		c2.4,0,2.8-0.8,3.1-1.7c0.7-2.2-2.6-2.9-2-4.5c0.4-1.3,1.7-2,4-2c2.9,0,4.1,2.9,6.2,4.8c4,3.6,7.8,4.4,11.8,4.4c2.6,0,5-2,4.6-4.4
		c-0.7-3.7-6.5-5.7-12.6-7.5c-2.4-0.7-4-2.4-4-4.3c0-2,1.9-3.3,4.4-3c5.7,0.6,8.4,0.3,8.6-0.8c0.6-2.8-5.6-5.2-9.3-6.1
		c-5.6-1.4-9.6-1.5-9.4,0.2c0.2,1.4,5,2.4,5.3,3.9c0.2,0.9-0.6,1.4-1.7,1.4c-2,0-8.5-2.6-9.3-7.1c-0.6-3.5,2.9-7,8-7.3
		c8-0.5,21.2,4.4,22.1,14c0.4,3.7-2.2,5.5-4.5,6.2c4.2,1.5,9.6,5.2,10.3,10.2C121.3,49.8,114.9,53.4,107.9,53.4z"/>
	<path class="st0" d="M133.6,52.1c-1.5,0.9-4.2,0.7-5.8-1.3c-1.3-1.6-3.6-3.4-4.6-3.9c-0.8-0.3-1.1-1-1-1.7c0.2-0.8,0.9-1.1,1.7-1
		c2,0.3,3.6,0.8,4.8,1.4c-4.5-9.8-11.8-21.3-15.6-27.8c-2.9-5-1.3-11.5,3.8-14.4c5.1-2.9,12.8-3,16.5,3.5c1.3,2.3,1.9,4.5,1.8,6.7
		c-0.4,5-3.1,8.9-6.2,8.9c-0.4,0-0.9-0.3-0.9-0.9c0.1-0.7,1.4-0.9,1.4-2.3c0-2.3-0.8-6.2-2.8-9.2c-1.9-2.8-4.2-4.1-5.8-3.1
		c-1.7,1.1-1,5.1,1.7,9.5c2.1,3.6,12.2,23.9,13.4,28.9C136.9,48.7,135.9,50.8,133.6,52.1z"/>
	<path class="st0" d="M144.8,24.6c-0.1-2.1,1.9-4,4.5-4.1c13.4-0.6,27.7,11.8,28.3,21.6c0.5,8.5-4.6,10.3-6.2,10.3
		c-0.9,0-1.5-0.6-1.6-1.3c-0.1-0.8,0.5-1.2,1.2-1.4c1.1-0.3,1.4-1.4,1.3-3.1c-0.5-8.8-10.5-16.3-23.7-17.8
		C146.3,28.6,144.8,26.3,144.8,24.6z M159.1,52c2.9-0.1,4.5-4,4.2-7c-0.6-5.4-4.6-10.3-8.8-10.1c-2.5,0.1-4,1.8-3.7,4.5
		c0.4,3.6,8.1,6.4,8.3,9c0.1,0.9-0.6,1-1,1.4C157.1,50.4,157.5,52.1,159.1,52z"/>
	<path class="st0" d="M185.3,50.5c0.5-0.6,1-1.4,0.4-3.5c-1.7-6.2-5.9-14.4-10.9-21.8c-1.4-2.1-0.9-4.8,0.9-5.8
		c2.3-1.2,5,0.2,6.9,2.7c4.8,6.6,9.4,18.5,9.1,24.2c-0.2,3.9-3.9,6.1-5.5,6.1C185.4,52.4,184.6,51.2,185.3,50.5z"/>
	<path class="st0" d="M199.8,50.5c0.5-0.6,1-1.4,0.4-3.5c-1.8-6.2-5.8-13.2-9.3-18.4c-1.4-2.1-0.9-4.8,0.9-5.8
		c2.3-1.2,5,0.2,6.9,2.7c3.3,4.5,7.8,15.1,7.5,20.8c-0.2,3.9-3.9,6.1-5.5,6.1C199.9,52.4,199.2,51.2,199.8,50.5z"/>
	<path class="st0" d="M206.8,29.2c-0.3-8,4.8-11.2,10.5-11.4c8.2-0.2,15,4.8,15.6,13.5c0.4,6.1-3.7,10.7-8.6,10.4
		c-0.8-0.1-1.5-0.5-1.6-1.4c-0.1-0.9,0.6-1.5,1.4-1.8c0.6-0.3,1.8-0.9,1.5-4.1c-0.5-5.1-4.8-12-8.7-11.8c-1.9,0.1-2.7,1.7-2.6,4.7
		c0.2,6.4,7.9,21.8,18.6,22.1c3.3,0.1,6.2-1.9,6.9-4.7c0.2-0.9,0-2.1-0.6-2.7c-0.9-1-2.5-1.2-2.4-2.6s2-2.1,4.7-2
		c3.7,0.2,6.7,2.7,6.8,6.3c0.2,5.8-5.8,10-13.8,10.3C219.1,54.7,207.3,42.6,206.8,29.2z"/>
</g>
</svg>
